<?xml version="1.0" encoding="UTF-8" standalone="no"?>
<!-- Created with Inkscape (http://www.inkscape.org/) -->

<svg
   width="239.83783"
   height="239.83781"
   viewBox="0 0 63.457091 63.45709"
   version="1.1"
   id="svg5"
   xmlns="http://www.w3.org/2000/svg"
   xmlns:svg="http://www.w3.org/2000/svg">
  <defs
     id="defs2">
    <rect
       x="-226.07664"
       y="292.91669"
       width="754.89941"
       height="273.25787"
       id="rect539" />
  </defs>
  <g
     id="layer2"
     transform="translate(58.255692,-66.057793)" />
  <g
     id="layer1"
     transform="translate(58.255692,-66.057793)">
    <text
       xml:space="preserve"
       transform="scale(0.26458333)"
       id="text537"
       style="font-style:normal;font-weight:normal;font-size:40px;line-height:1.25;font-family:sans-serif;white-space:pre;shape-inside:url(#rect539);fill:#000000;fill-opacity:1;stroke:none" />
    <path
       id="rect7039"
       style="fill:#12bb33;stroke-width:0.264583"
       d="m -44.732049,66.057793 h 36.4098072 c 7.49209798,0 13.5236426,6.031544 13.5236426,13.523642 v 36.409805 c 0,7.4921 -6.03154462,13.52364 -13.5236426,13.52364 H -44.732049 c -7.492098,0 -13.523643,-6.03154 -13.523643,-13.52364 V 79.581435 c 0,-7.492098 6.031545,-13.523642 13.523643,-13.523642 z" />
    <g
       aria-label="SX"
       id="text1183"
       style="font-size:38.1px;line-height:1.25;letter-spacing:-1.32292px;fill:#ffffff;stroke-width:0.264583">
      <path
         d="m -26.01219,114.07249 q -4.405738,0 -7.781562,-1.16972 -3.375826,-1.21472 -5.321217,-3.41919 -1.945389,-2.24947 -2.002606,-5.44372 h 7.724344 q 0.114434,2.20448 2.002608,3.73412 1.94539,1.48465 5.321216,1.48465 2.918086,0 4.634607,-1.07975 1.716521,-1.12473 1.716521,-2.96929 0,-1.93455 -1.544868,-3.01429 -1.487652,-1.07975 -4.005217,-1.75459 -2.517564,-0.674843 -5.378433,-1.439663 -4.634607,-1.259702 -7.094955,-3.239234 -2.403129,-1.97953 -2.403129,-5.263754 -0.05722,-2.78934 1.659304,-4.768872 1.773738,-2.024521 4.806258,-3.104266 3.032522,-1.124734 6.98052,-1.124734 4.005217,0 7.037738,1.124734 3.089737,1.124734 4.806259,3.149255 1.773739,2.024522 1.888174,4.813862 h -7.83878 q -0.05722,-1.664606 -1.659305,-2.924309 -1.544868,-1.304691 -4.34852,-1.304691 -2.40313,-0.04499 -4.062434,0.944777 -1.602086,0.944776 -1.602086,2.78934 0,1.574628 1.258782,2.519404 1.258783,0.899788 3.433043,1.529639 2.17426,0.629851 4.977911,1.34968 2.975303,0.809808 5.43565,1.889552 2.460348,1.079745 3.948,2.87932 1.487651,1.75459 1.487651,4.54393 0,2.47442 -1.602086,4.58892 -1.602087,2.1145 -4.749042,3.41919 -3.146956,1.2597 -7.724346,1.2597 z"
         style="font-weight:bold;font-family:'DM Sans';-inkscape-font-specification:'DM Sans Bold';stroke-width:0.352335"
         id="path21146" />
    </g>
  </g>
</svg>
