<?xml version="1.0" encoding="UTF-8" standalone="no"?>
<svg
   version="1.0"
   width="1335.1445pt"
   height="381.59778pt"
   viewBox="0 0 1335.1445 381.59778"
   preserveAspectRatio="xMidYMid meet"
   id="svg1002"
   xmlns:xlink="http://www.w3.org/1999/xlink"
   xmlns="http://www.w3.org/2000/svg"
   xmlns:svg="http://www.w3.org/2000/svg">
  <defs
     id="defs1006">
    <rect
       x="995.60632"
       y="107.48023"
       width="248.9016"
       height="364.8671"
       id="rect3304" />
    <linearGradient
       id="linearGradient2640">
      <stop
         style="stop-color:#00f9ff;stop-opacity:1"
         offset="0"
         id="stop2644" />
      <stop
         style="stop-color:#010098;stop-opacity:1"
         offset="1"
         id="stop2646" />
    </linearGradient>
    <radialGradient
       xlink:href="#linearGradient2640"
       id="radialGradient2789"
       gradientUnits="userSpaceOnUse"
       gradientTransform="matrix(0.20073351,0.53925963,-0.67238882,0.25028938,12545.687,4190.0949)"
       cx="1586.9795"
       cy="2731.8677"
       fx="1586.9795"
       fy="2731.8677"
       r="4266.8252" />
  </defs>
  <metadata
     id="metadata996">
Created by potrace 1.15, written by Peter Selinger 2001-2017
</metadata>
  <g
     transform="matrix(0.1,0,0,-0.1,-1058.4256,963.23784)"
     fill="#000000"
     stroke="none"
     id="g1000">
    <path
       d="m 11822.153,9559.9684 c -158.545,-356.1369 -373.654,-731.5801 -627.107,-1094.5484 -53.302,-76.6333 -151.746,-211.484 -200.152,-274.751 -39.976,-51.9799 -183.019,-262.2758 -208.854,-306.8299 -51.398,-88.8114 -114.489,-216.8304 -131.894,-267.3252 -23.931,-69.5046 -44.327,-157.1279 -61.188,-262.8698 l -8.702,-53.4651 1.36,-111.3854 c 1.36,-111.0885 3.263,-139.0091 14.413,-208.8108 52.485,-331.1862 232.513,-650.7883 487.327,-866.4306 144.675,-121.7815 312.737,-207.0286 481.071,-243.266 14.686,-3.2673 31.818,-8.0197 38.344,-10.396 16.861,-6.5346 48.951,-12.7722 103.34,-19.6038 67.987,-8.6138 215.925,-8.6138 283.912,0 54.116,6.8316 86.478,13.0692 103.338,19.6038 6.527,2.3763 26.379,7.7228 44.6,11.5841 249.102,55.2472 491.949,217.4245 677.144,452.0767 139.781,177.0287 240.672,403.9581 275.481,618.7093 3.264,18.7128 7.615,46.3364 10.062,60.8907 2.176,14.8514 5.439,39.5048 6.799,54.9502 1.36,15.4455 3.807,38.9107 5.439,51.9799 1.904,14.5544 2.447,59.1086 1.904,114.3558 -1.36,103.3657 -5.167,135.1478 -28.283,237.6225 -22.843,101.8805 -45.415,162.4743 -98.172,264.3549 -45.415,87.3262 -107.147,192.474 -135.429,230.1966 -19.853,26.7326 -54.662,76.6332 -88.655,128.3162 -6.526,10.099 -32.905,45.4453 -58.467,78.7124 -352.714,459.2053 -595.834,868.807 -751.658,1266.2303 -10.335,26.1386 -33.722,82.8712 -52.486,126.2372 -30.686,71.4752 -40.344,87.2036 -52.807,69.7491 -8.242,-11.5434 -16.31,-33.5468 -30.68,-65.8877 z"
       id="path998"
       style="fill:url(#radialGradient2789);fill-opacity:1;stroke-width:0.28421" />
    <text
       xml:space="preserve"
       transform="matrix(3.6231758,0,0,-3.6231758,8921.8537,10176.367)"
       id="text3302"
       style="font-style:normal;font-weight:normal;font-size:40px;line-height:1.25;font-family:sans-serif;letter-spacing:-5.99px;white-space:pre;shape-inside:url(#rect3304);fill:#000000;fill-opacity:1;stroke:none" />
    <g
       aria-label="SuperX "
       transform="matrix(0.48309011,0,0,-0.48309011,8921.8537,3992.8133)"
       id="text3618"
       style="font-size:6096.27px;line-height:1.25;letter-spacing:-0.075px;stroke-width:10.1604">
      <path
         d="m 12862.976,-5042.8628 q -469.413,0 -829.093,-158.503 -359.68,-164.5993 -566.953,-463.3166 -207.273,-304.8135 -213.369,-737.6486 h 822.996 q 12.193,298.7172 213.369,505.9904 207.274,201.1769 566.954,201.1769 310.909,0 493.797,-146.3105 182.888,-152.4067 182.888,-402.3538 0,-262.1396 -164.599,-408.4501 -158.503,-146.3105 -426.739,-237.7545 -268.236,-91.4441 -573.049,-195.0807 -493.798,-170.6955 -755.938,-438.9314 -256.043,-268.2359 -256.043,-713.2636 -6.096,-377.9688 176.792,-646.2046 188.984,-274.3322 512.087,-420.6427 323.102,-152.4067 743.745,-152.4067 426.738,0 749.841,152.4067 329.198,152.4068 512.086,426.7389 188.985,274.3322 201.177,652.3009 h -835.189 q -6.096,-225.562 -176.791,-396.2575 -164.6,-176.7919 -463.317,-176.7919 -256.043,-6.0962 -432.835,128.0217 -170.696,128.0217 -170.696,377.9688 0,213.3694 134.118,341.3911 134.118,121.9254 365.776,207.2732 231.659,85.3477 530.376,182.8881 317.006,109.7328 579.146,256.0433 262.139,146.3105 420.642,390.1613 158.503,237.7545 158.503,615.7232 0,335.2949 -170.695,621.8196 -170.696,286.5247 -505.991,463.3165 -335.295,170.6956 -822.996,170.6956 z"
         style="letter-spacing:-225px"
         id="path38488" />
      <path
         d="m 15940.059,-5042.8628 q -566.954,0 -877.863,-353.5837 -304.814,-353.5836 -304.814,-1036.3659 V -8139.768 h 774.226 v 1633.8004 q 0,390.1613 158.503,597.4344 158.503,207.2732 499.895,207.2732 323.102,0 530.375,-231.6582 213.37,-231.6583 213.37,-646.2047 V -8139.768 h 780.322 v 3023.7499 h -688.878 l -60.963,-512.0866 q -140.214,268.2358 -408.45,426.7389 -262.14,158.503 -615.723,158.503 z"
         style="letter-spacing:-225px"
         id="path38490" />
      <path
         d="M 18284.16,-3774.8387 V -8139.768 h 694.975 l 85.347,432.8352 q 146.311,-201.1769 384.065,-353.5837 243.851,-152.4067 627.916,-152.4067 426.739,0 762.034,207.2731 335.295,207.2732 530.376,566.9532 195.08,359.6799 195.08,816.9001 0,457.2203 -195.08,816.9002 -195.081,353.5837 -530.376,560.8569 -335.295,201.1769 -762.034,201.1769 -341.391,0 -597.434,-128.0217 -256.044,-128.0217 -414.547,-359.6799 v 1755.7257 z m 1627.704,-1950.8064 q 371.872,0 615.723,-249.947 243.851,-249.9471 243.851,-646.2047 0,-396.2575 -243.851,-652.3009 -243.851,-256.0433 -615.723,-256.0433 -377.969,0 -621.82,256.0433 -237.754,249.9471 -237.754,646.2047 0,396.2575 237.754,652.3009 243.851,249.947 621.82,249.947 z"
         style="letter-spacing:-225px"
         id="path38492" />
      <path
         d="m 23505.225,-5042.8628 q -457.22,0 -810.804,-195.0807 -353.583,-195.0806 -554.76,-548.6643 -201.177,-353.5836 -201.177,-816.9002 0,-469.4127 195.08,-835.1889 201.177,-365.7762 548.665,-566.9532 353.583,-207.2731 829.092,-207.2731 445.028,0 786.419,195.0806 341.391,195.0806 530.376,536.4718 195.08,335.2948 195.08,749.8412 0,67.0589 -6.096,140.2142 0,73.1552 -6.096,152.4067 H 22712.71 q 24.385,353.5837 243.851,554.7606 225.562,201.1769 542.568,201.1769 237.754,0 396.258,-103.6366 164.599,-109.7328 243.85,-280.4284 h 792.515 q -85.347,286.5247 -286.524,524.2792 -195.081,231.6583 -487.702,365.7762 -286.525,134.118 -652.301,134.118 z m 6.096,-2536.0484 q -286.524,0 -505.99,164.5993 -219.466,158.5031 -280.428,487.7016 h 1505.778 q -18.288,-298.7172 -219.465,-475.509 -201.177,-176.7919 -499.895,-176.7919 z"
         style="letter-spacing:-225px"
         id="path38494" />
      <path
         d="M 25454.498,-5116.0181 V -8139.768 h 694.975 l 73.155,566.9531 q 164.599,-292.6209 445.028,-463.3165 286.524,-176.7918 670.589,-176.7918 v 822.9964 h -219.465 q -256.044,0 -457.221,79.2515 -201.177,79.2515 -317.006,274.3322 -109.733,195.0806 -109.733,542.568 v 1377.757 z"
         style="letter-spacing:-225px"
         id="path38496" />
      <path
         d="M 27457.589,-5116.0181 28792.672,-7274.0977 27439.3,-9383.4071 h 896.151 l 957.115,1487.4899 877.863,-1487.4899 h 877.863 l -1335.083,2145.8871 1365.564,2121.5019 h -896.152 l -969.307,-1505.7787 -877.863,1505.7787 z"
         style="letter-spacing:-225px"
         id="path38498" />
    </g>
    <text
       xml:space="preserve"
       style="font-style:normal;font-weight:normal;font-size:4862.3px;line-height:1.25;font-family:sans-serif;letter-spacing:-21.7028px;fill:#000000;fill-opacity:1;stroke:none;stroke-width:8.10379"
       x="21143.383"
       y="-6935.3467"
       id="text4959"
       transform="scale(1.0843072,-0.92224787)"><tspan
         id="tspan4957"
         style="font-style:normal;font-variant:normal;font-weight:bold;font-stretch:normal;font-size:4862.3px;font-family:'DM Sans';-inkscape-font-specification:'DM Sans Bold';stroke-width:8.10379"
         x="21143.383"
         y="-6935.3467" /></text>
    <text
       xml:space="preserve"
       style="font-style:normal;font-weight:normal;font-size:1449.27px;line-height:1.25;font-family:sans-serif;letter-spacing:-21.7028px;fill:#000000;fill-opacity:1;stroke:none;stroke-width:3.62317"
       x="12949.273"
       y="-9110.5859"
       id="text5563"
       transform="scale(1,-1)"><tspan
         id="tspan5561"
         style="font-style:normal;font-variant:normal;font-weight:bold;font-stretch:normal;font-size:1449.27px;font-family:'DM Sans';-inkscape-font-specification:'DM Sans Bold';stroke-width:3.62317"
         x="12949.273"
         y="-9110.5859" /></text>
  </g>
</svg>
