<?xml version="1.0" encoding="UTF-8" standalone="no"?>
<!-- Created with Inkscape (http://www.inkscape.org/) -->

<svg
   width="239.83783"
   height="239.83783"
   viewBox="0 0 63.457091 63.457094"
   version="1.1"
   id="svg5"
   xmlns="http://www.w3.org/2000/svg"
   xmlns:svg="http://www.w3.org/2000/svg">
  <defs
     id="defs2">
    <rect
       x="-226.07664"
       y="292.91669"
       width="754.89941"
       height="273.25787"
       id="rect539" />
  </defs>
  <g
     id="layer2"
     transform="translate(58.255692,-66.057793)" />
  <g
     id="layer1"
     transform="translate(58.255692,-66.057793)">
    <text
       xml:space="preserve"
       transform="scale(0.26458333)"
       id="text537"
       style="font-style:normal;font-weight:normal;font-size:40px;line-height:1.25;font-family:sans-serif;white-space:pre;shape-inside:url(#rect539);fill:#000000;fill-opacity:1;stroke:none" />
    <path
       id="rect7039"
       style="fill:#12bb33;stroke-width:0.264583"
       d="m -44.732049,66.057793 h 36.4098072 c 7.49209798,0 13.5236426,6.031544 13.5236426,13.523642 v 36.409805 c 0,7.4921 -6.03154462,13.52364 -13.5236426,13.52364 H -44.732049 c -7.492098,0 -13.523643,-6.03154 -13.523643,-13.52364 V 79.581435 c 0,-7.492098 6.031545,-13.523642 13.523643,-13.523642 z" />
    <g
       aria-label="SX"
       id="text1183"
       style="font-size:38.1px;line-height:1.25;letter-spacing:-1.32292px;fill:#ffffff;stroke-width:0.264583">
      <path
         d="m -38.336889,111.57854 q -2.9337,0 -5.1816,-0.9906 -2.2479,-1.0287 -3.5433,-2.8956 -1.295399,-1.905 -1.333499,-4.6101 h 5.143499 q 0.0762,1.8669 1.3335,3.1623 1.2954,1.2573 3.5433,1.2573 1.9431,0 3.0861,-0.9144 1.143,-0.9525 1.143,-2.5146 0,-1.6383 -1.0287,-2.5527 -0.9906,-0.9144 -2.667,-1.4859 -1.6764,-0.571502 -3.5814,-1.219202 -3.0861,-1.0668 -4.7244,-2.7432 -1.6002,-1.676399 -1.6002,-4.457699 -0.0381,-2.3622 1.1049,-4.0386 1.1811,-1.7145 3.2004,-2.6289 2.0193,-0.9525 4.6482,-0.9525 2.667,0 4.6863,0.9525 2.0574,0.9525 3.2004,2.667 1.1811,1.7145 1.2573,4.0767 h -5.2197 q -0.0381,-1.4097 -1.1049,-2.4765 -1.0287,-1.1049 -2.8956,-1.1049 -1.6002,-0.0381 -2.7051,0.8001 -1.0668,0.8001 -1.0668,2.3622 0,1.3335 0.8382,2.1336 0.8382,0.762 2.286,1.2954 1.4478,0.5334 3.3147,1.143 1.9812,0.685799 3.6195,1.600199 1.6383,0.9144 2.6289,2.4384 0.9906,1.485902 0.9906,3.848102 0,2.0955 -1.0668,3.8862 -1.0668,1.7907 -3.1623,2.8956 -2.0955,1.0668 -5.1435,1.0668 z"
         style="font-weight:bold;font-family:'DM Sans';-inkscape-font-specification:'DM Sans Bold'"
         id="path21146" />
      <path
         d="m -27.290406,111.12134 8.3439,-13.487402 -8.4582,-13.182599 h 5.6007 l 5.9817,9.2964 5.486399,-9.2964 h 5.4864002 l -8.3439002,13.411199 8.5344001,13.258802 h -5.6007001 l -6.057899,-9.4107 -5.4864,9.4107 z"
         style="font-weight:bold;font-family:'DM Sans';-inkscape-font-specification:'DM Sans Bold'"
         id="path21148" />
    </g>
  </g>
</svg>
